<?xml version="1.0" standalone="no"?>
<!DOCTYPE svg PUBLIC "-//W3C//DTD SVG 20010904//EN"
 "http://www.w3.org/TR/2001/REC-SVG-20010904/DTD/svg10.dtd">
<svg version="1.0" xmlns="http://www.w3.org/2000/svg"
 width="750.000000pt" height="750.000000pt" viewBox="0 0 750.000000 750.000000"
 preserveAspectRatio="xMidYMid meet">
<metadata>
Created by potrace 1.11, written by Peter Selinger 2001-2013
</metadata>
<g transform="translate(0.000000,750.000000) scale(0.100000,-0.100000)"
fill="#000000" stroke="none">
<path d="M0 3750 l0 -3750 3750 0 3750 0 0 3750 0 3750 -3750 0 -3750 0 0
-3750z m6928 718 c-3 -7 -31 -147 -64 -310 l-59 -298 -357 0 c-281 0 -357 3
-353 13 2 6 9 38 15 69 l11 57 42 3 42 3 31 90 31 90 53 3 c29 2 56 0 61 -5 4
-4 0 -45 -10 -90 -10 -46 -15 -85 -13 -88 10 -9 321 -5 327 4 5 9 65 295 65
313 0 4 -1321 8 -2936 8 l-2936 0 6 38 c4 20 12 54 17 75 l10 37 3010 0 c2405
0 3010 -3 3007 -12z m-5529 -250 c0 -13 -6 -45 -12 -73 l-12 -50 -73 -3 c-82
-3 -80 -6 -61 91 l12 57 73 0 c70 0 74 -1 73 -22z m1201 -50 c-1 -13 -7 -52
-15 -88 -8 -36 -14 -68 -15 -72 0 -5 41 -8 91 -8 l91 0 -6 -25 c-4 -14 -9 -45
-13 -70 l-6 -45 -208 0 c-115 0 -209 3 -209 8 1 4 6 34 13 67 l13 60 44 5 43
5 28 82 c15 45 30 87 34 93 3 5 31 10 61 10 49 0 54 -2 54 -22z m1331 16 c3
-2 -27 -169 -67 -371 -41 -202 -74 -375 -74 -385 0 -14 8 -18 41 -18 34 0 40
-3 35 -17 -2 -10 -10 -44 -16 -75 l-11 -58 -165 0 c-90 0 -164 3 -164 8 0 6
11 56 25 120 5 19 12 22 54 22 l48 0 62 308 c33 169 61 310 61 315 0 4 -20 7
-45 7 -36 0 -45 3 -45 18 0 18 17 97 25 120 4 10 31 13 117 11 62 -1 116 -4
119 -5z m399 -13 c0 -16 -127 -664 -145 -738 -5 -21 -2 -23 40 -23 39 0 46 -3
41 -17 -2 -10 -10 -44 -16 -75 l-11 -58 -165 0 c-125 0 -164 3 -164 13 1 6 6
39 13 72 l13 60 50 3 50 3 59 297 c32 163 60 305 63 315 4 14 -3 17 -46 17
l-50 0 14 66 c8 36 17 70 20 75 3 5 57 9 120 9 105 0 114 -1 114 -19z m-2268
-171 c81 -23 137 -102 138 -196 0 -41 -37 -254 -65 -371 -5 -22 -2 -23 45 -23
44 0 51 -2 46 -17 -2 -10 -10 -44 -16 -75 l-11 -58 -120 0 c-105 0 -119 2
-119 17 0 9 21 120 46 246 51 257 51 287 2 317 -69 42 -224 32 -318 -21 l-36
-20 -33 -167 c-18 -92 -35 -179 -38 -194 -5 -27 -4 -28 41 -28 52 0 54 -4 32
-95 l-11 -50 -168 -3 c-190 -3 -176 -11 -156 91 l12 57 48 0 48 0 10 53 c56
270 77 387 73 392 -3 3 -25 5 -49 5 -38 0 -44 3 -39 18 3 9 8 29 11 45 17 86
3 77 125 77 l110 0 0 -29 0 -30 65 30 c105 47 222 58 327 29z m1292 -8 c60
-21 129 -80 159 -136 25 -48 30 -164 9 -233 l-13 -43 -309 0 -310 0 0 -29 c0
-40 38 -92 90 -121 39 -22 57 -25 135 -25 82 0 96 3 160 35 39 19 72 35 75 37
3 2 23 -20 45 -48 l39 -52 -24 -20 c-42 -34 -143 -77 -221 -93 -186 -40 -361
26 -431 161 -43 83 -33 227 24 339 29 56 122 151 182 185 50 28 130 55 191 65
49 7 147 -4 199 -22z m1639 -2 c72 -27 121 -71 152 -135 31 -63 36 -122 16
-212 l-14 -63 -313 0 c-342 0 -326 3 -303 -57 48 -128 254 -161 414 -67 l43
25 41 -53 40 -53 -22 -17 c-86 -67 -248 -113 -362 -105 -222 16 -353 171 -316
372 51 280 364 462 624 365z m814 21 c66 -10 173 -53 197 -80 12 -14 12 -25
-1 -93 l-16 -78 -70 0 -70 0 6 36 c6 33 4 36 -31 52 -56 24 -184 21 -245 -6
-75 -33 -123 -77 -154 -140 -33 -67 -37 -148 -10 -199 58 -109 235 -134 389
-54 l58 30 40 -51 c48 -60 47 -62 -54 -112 -170 -84 -352 -86 -479 -4 -171
110 -175 364 -8 542 73 78 185 136 299 156 65 11 79 11 149 1z m-4461 -43 c-4
-18 -9 -50 -13 -70 l-6 -38 -198 0 c-110 0 -199 -4 -199 -9 0 -4 -33 -171 -74
-369 -40 -199 -71 -364 -68 -367 3 -3 1325 -5 2937 -5 l2932 0 -15 -70 -15
-70 -3009 0 c-1654 0 -3008 3 -3008 8 0 4 46 235 101 515 l102 507 270 0 270
0 -7 -32z m-56 -275 c-1 -10 -20 -110 -43 -223 l-42 -205 -123 -3 c-114 -2
-123 -1 -118 15 2 10 10 44 16 76 l11 57 48 0 48 0 27 138 c15 75 29 143 31
150 3 8 27 12 75 12 60 0 70 -2 70 -17z m1216 -8 c-15 -61 -36 -183 -36 -212
0 -63 57 -90 120 -58 l30 15 34 -52 c39 -60 39 -60 -37 -99 -80 -42 -175 -35
-238 18 -67 57 -75 119 -39 301 l23 112 74 0 c75 0 75 0 69 -25z m3784 13 c0
-6 -10 -63 -22 -125 l-22 -113 20 -27 c25 -34 74 -42 111 -18 13 9 26 15 27
13 34 -44 66 -100 61 -108 -3 -5 -27 -22 -53 -37 -39 -24 -59 -28 -118 -28
-60 0 -77 4 -111 27 -48 32 -83 97 -83 155 0 34 33 222 45 261 6 16 145 17
145 0z m630 -451 c0 -8 -5 -39 -11 -70 l-12 -57 -117 0 -117 0 15 70 15 70
114 0 c87 0 113 -3 113 -13z m215 -159 c-3 -13 -9 -43 -13 -68 l-8 -45 -117
-2 -118 -2 7 32 c3 17 13 37 20 45 16 16 18 26 4 17 -11 -7 -14 28 -3 38 3 4
57 7 120 7 113 0 113 0 108 -22z"/>
<path d="M3103 3855 c-64 -18 -124 -56 -158 -100 -14 -19 -25 -36 -25 -39 0
-3 104 -6 231 -6 l231 0 -7 28 c-11 47 -39 84 -75 103 -49 26 -134 32 -197 14z"/>
<path d="M4747 3860 c-20 -5 -54 -18 -75 -29 -39 -20 -112 -93 -112 -111 0 -6
82 -10 225 -10 l225 0 0 24 c0 31 -38 86 -76 108 -37 22 -134 31 -187 18z"/>
<path d="M6871 3184 c0 -11 3 -14 6 -6 3 7 2 16 -1 19 -3 4 -6 -2 -5 -13z"/>
<path d="M6687 3153 c-4 -3 -7 -11 -7 -17 0 -6 5 -5 12 2 6 6 9 14 7 17 -3 3
-9 2 -12 -2z"/>
</g>
</svg>
